<svg xmlns="http://www.w3.org/2000/svg" viewBox="0 -960 960 960"><path d="M586-349h25.5v-79.5H691V-454h-79.5v-79.5H586v79.5h-79.5v25.5H586v79.5ZM194.28-217q-24.218 0-40.749-16.531Q137-250.062 137-274.363v-411.274q0-24.301 16.531-40.832Q170.062-743 194.5-743h187l77.5 77.5h306.72q24.218 0 40.749 16.531Q823-632.438 823-608v333.5q0 24.438-16.531 40.969Q789.938-217 765.72-217H194.28Zm.22-25.5h571q14 0 23-9t9-23V-608q0-14-9-23t-23-9H449l-77.5-77.5h-177q-14 0-23 9t-9 23v411q0 14 9 23t23 9Zm-32 0v-475 475Z"/></svg>