<svg xmlns="http://www.w3.org/2000/svg" viewBox="0 -960 960 960"><path d="M234-177q-23.969 0-40.734-16.766Q176.5-210.531 176.5-234.5V-726q0-23.969 16.766-40.734Q210.031-783.5 234-783.5h492q23.969 0 40.734 16.766Q783.5-749.969 783.5-726v228q-6.873-1.386-13.186-2.193Q764-501 758-503v-223q0-12-10-22t-22-10H234q-12 0-22 10t-10 22v491.5q0 12 10 22t22 10h224.963q1.037 7 1.889 13.043.853 6.043 3.148 12.457H234Zm-32-67v41.5V-758v255-3 262Zm106.5-77h159.027q1.973-6 4.473-12.25t5.5-13.25h-169v25.5Zm0-146.5H580q14.5-7.5 25.5-13t24-10.5v-2h-321v25.5Zm0-146.5h343v-25.5h-343v25.5ZM718.534-93.5Q658-93.5 616-135.466q-42-41.967-42-102.5 0-60.534 41.966-102.534 41.967-42 102.5-42Q779-382.5 821-340.534q42 41.967 42 102.5 0 60.534-41.966 102.534-41.967 42-102.5 42ZM705-125h27.5v-99.5H832v-27h-99.5V-351H705v99.5h-99.5v27H705v99.5Z"/></svg>